# xmcd
#
# Track frame offsets: 
#        150
#        4262
#        34033
#        53985
#        74280
#        90531
#        114555
#        132442
#        146411
#        157498
#        181836
#        204864
#        230741
#        248855
#        277012
#
# Disc length: 3973 seconds
#
# Revision: 3
# Processed by: cddbd v1.5.2PL0 Copyright (c) Steve Scherf et al.
# Submitted via: ExactAudioCopy v1.3
#
DISCID=da0f830f
DTITLE=Re:SPEC - 東方音唄騒
DYEAR=2006
DGENRE=Soundtrack
TTITLE0=otokaz - Prologos for UTASAWAGI
TTITLE1=OS - Complete Darkness 1969
TTITLE2=天音 - Crystalize Silver -more glitter-
TTITLE3=ねこみりん - Shanghai, 33rd teahouse
TTITLE4=ルゼ - Nimble girl of Violent wind
TTITLE5=infinityLovewn☆ - Sunny Funny Chiny (Raspberry Mix)
TTITLE6=あるて - ヒガンバナ
TTITLE7=Necro Panda - Extend Ash (aftereffect)
TTITLE8=Rats - 上海騒音館
TTITLE9=ねこみりん - 幽霊楽団 ～ High Tension Ensemble!!
TTITLE10=OS - 上海紅茶館 - time of dusk -
TTITLE11=otokaz - 孤空の少女と紅い月
TTITLE12=天音 - 幽霊楽団 ～夢幻泡影
TTITLE13=otokaz - 月と時計の使者 まじかる☆さくや -BMS Re:Edit-
TTITLE14=Data
EXTD=YEAR: 2006
EXTT0=
EXTT1=
EXTT2=
EXTT3=
EXTT4=
EXTT5=
EXTT6=
EXTT7=
EXTT8=
EXTT9=
EXTT10=
EXTT11=
EXTT12=
EXTT13=
EXTT14=
PLAYORDER=
